<?xml version="1.0"?>
<svg version="1.1" xmlns="http://www.w3.org/2000/svg" width="240" height="50" style=""><path fill="#b154d4" d="M16.353515625,43.51953125q-0.021484375-0.64453125-0.021484375-1.2890625q0-2.01953125,0.21484375-4.060546875q0.2578125-2.70703125,0.34375-5.328125q0.0859375-3.072265625,0.2578125-6.380859375q0.107421875-1.8046875,0.107421875-3.56640625q0-1.439453125-0.064453125-2.857421875q0.21484375-0.494140625,0.5693359375-0.666015625t0.8916015625-0.171875q0.2578125,0,0.5478515625,0.04296875t0.5048828125,0.21484375q0.30078125,0.04296875,0.7412109375,0.0859375t0.6767578125,0.2578125q0.0859375,0.12890625,0.4404296875,0.880859375t0.837890625,1.826171875t1.009765625,2.3310546875t1.009765625,2.384765625t0.837890625,1.9873046875t0.4404296875,1.07421875q2.01953125-3.65234375,3.953125-7.5087890625t4.232421875-7.2724609375q0.21484375-0.30078125,0.7412109375-0.4404296875t0.8701171875-0.1396484375q0.923828125,0,1.3427734375,0.4404296875t0.5478515625,1.1279296875q0.0859375,0.4296875,0.107421875,0.923828125q0.021484375,0.2578125-0.021484375,0.537109375q-0.0859375,0.794921875-0.0859375,1.50390625q0,5.005859375-0.34375,9.9365234375t-0.623046875,9.9580078125q-0.04296875,1.03125-0.04296875,2.1484375t0.04296875,2.3203125q0.021484375,0.4296875,0.021484375,0.837890625q0,1.890625-0.322265625,3.5234375q-0.30078125,0.494140625-0.98828125,0.623046875t-1.16015625,0.12890625q-1.009765625,0-1.93359375-0.47265625l-0.236328125-0.279296875l-0.0859375-0.34375t-0.04296875-0.34375q0-3.115234375,0.2255859375-6.2734375t0.5048828125-6.3056640625t0.5908203125-6.2841796875t0.5263671875-6.2734375q-1.267578125,2.10546875-2.4599609375,4.2861328125t-2.2451171875,4.4365234375q-0.38671875,0.880859375-0.7412109375,1.890625t-0.8486328125,1.8046875q-0.2578125,0.38671875-0.8701171875,0.47265625t-1.0634765625,0.0859375q-0.4296875,0-0.8916015625-0.150390625t-0.6337890625-0.64453125q-0.794921875-2.427734375-1.697265625-4.748046875t-1.826171875-4.705078125q0,1.58984375,0.064453125,4.1142578125t0.064453125,5.2314453125t-0.0859375,5.177734375t-0.408203125,3.91015625q-0.0859375,0.537109375-0.6982421875,0.666015625t-1.0634765625,0.12890625q-0.34375,0-0.6552734375-0.04296875t-0.6123046875-0.171875z M41.86986328125,39.8671875q0-1.50390625,0.3330078125-3.544921875t1.1279296875-3.8671875t2.0947265625-3.1044921875t3.2763671875-1.2783203125q1.84765625,0,2.771484375,1.0634765625t0.923828125,2.8681640625q0,1.181640625-0.4404296875,2.5888671875t-1.2568359375,2.6640625t-1.93359375,2.0947265625t-2.4921875,0.837890625l-0.55859375-0.04296875q0,0.580078125,0.171875,1.5576171875t0.5048828125,1.9443359375t0.859375,1.697265625t1.2783203125,0.73046875q1.095703125,0,2.10546875-0.880859375t1.912109375-1.955078125t1.67578125-1.955078125t1.41796875-0.880859375q0.34375,0,0.708984375,0.107421875t0.408203125,0.6015625q0,0.30078125-0.1611328125,0.494140625t-0.2900390625,0.4296875q-0.666015625,1.138671875-1.4501953125,2.169921875t-1.7724609375,1.869140625t-2.1591796875,1.3212890625t-2.5888671875,0.4833984375q-1.84765625,0-3.072265625-0.6552734375t-1.9765625-1.76171875t-1.0849609375-2.556640625t-0.3330078125-3.0400390625z M45.71556640625,38.234375l0.6015625,0.537109375q0.4296875,0.38671875,0.859375,0.171875t0.7734375-0.7841796875t0.6337890625-1.4072265625t0.515625-1.71875t0.3330078125-1.71875t0.107421875-1.396484375l0-0.73046875t-0.064453125-0.7734375t-0.2255859375-0.6123046875t-0.5048828125-0.3115234375q-0.107421875-0.021484375-0.193359375-0.021484375q-0.73046875,0-1.24609375,0.923828125q-0.55859375,1.03125-0.90234375,2.5029296875t-0.494140625,3.0185546875t-0.193359375,2.3203125z M59.877421875,33.6044921875q-0.0537109375-0.7197265625,0.0859375-1.3212890625t0.55859375-0.9775390625t1.3427734375-0.3759765625q0.21484375,0,0.5263671875,0.0537109375t0.6123046875,0.1396484375t0.5048828125,0.2578125t0.2041015625,0.47265625l0,2.427734375q0.837890625-0.966796875,1.826171875-1.3857421875t2.255859375-0.4189453125q0.966796875,0,1.912109375,0.4404296875t1.783203125,1.1708984375t1.4501953125,1.611328125t0.8916015625,1.76171875q0.171875-0.794921875,0.38671875-1.9443359375t0.6337890625-2.2021484375t1.1064453125-1.8046875t1.826171875-0.751953125q1.224609375,0,2.0625,0.880859375t1.3642578125,2.2880859375t0.794921875,3.1474609375t0.3974609375,3.4375t0.12890625,3.1689453125l0,2.3095703125q0,0.2578125-0.193359375,0.4189453125t-0.4833984375,0.2470703125t-0.6015625,0.107421875t-0.4833984375,0.021484375q-0.666015625,0-1.2138671875-0.2041015625t-0.5478515625-1.0419921875l0-1.93359375t-0.04296875-2.5029296875t-0.150390625-2.685546875t-0.279296875-2.4384765625t-0.4404296875-1.76171875t-0.6552734375-0.6875q-0.537109375,0-0.7734375,0.6015625t-0.3974609375,1.525390625t-0.2470703125,1.955078125t-0.236328125,1.955078125t-0.4833984375,1.5146484375t-0.9130859375,0.5908203125q-0.623046875,0-1.095703125-0.5908203125t-0.9345703125-1.4716796875t-0.923828125-1.890625t-1.0205078125-1.890625q-0.55859375-0.90234375-1.203125-1.4609375q-0.580078125-0.537109375-1.310546875-0.515625l-0.107421875,0q-0.966796875,0.04296875-1.5146484375,0.6982421875t-0.837890625,1.6005859375t-0.3544921875,2.0302734375t-0.064453125,1.9013671875q0,0.7734375,0.12890625,1.8046875q0.0859375,0.6875,0.0859375,1.310546875q0,0.322265625-0.021484375,0.623046875q-0.064453125,0.90234375-0.4833984375,1.5146484375t-1.5576171875,0.6123046875q-0.4296875,0-1.07421875-0.0859375t-0.859375-0.580078125q-0.494140625-0.880859375-0.751953125-2.2236328125t-0.38671875-2.771484375t-0.150390625-2.8359375t-0.021484375-2.4169921875q0-0.708984375-0.0537109375-1.4287109375z M86.54318359375,39.39453125q0-1.224609375,0.3115234375-2.5244140625t0.98828125-2.341796875t1.7080078125-1.697265625t2.4921875-0.6552734375q1.095703125,0,2.3095703125,0.3759765625t2.2236328125,1.07421875t1.6435546875,1.7080078125t0.6337890625,2.255859375q0,1.50390625-0.5478515625,2.857421875t-1.5361328125,2.4169921875t-2.3095703125,1.67578125t-2.8681640625,0.6123046875q-1.267578125,0-2.212890625-0.4619140625t-1.5791015625-1.2353515625t-0.9453125-1.826171875t-0.3115234375-2.234375z M89.70138671875,39.3515625q0,0.38671875,0.1181640625,1.138671875t0.3544921875,1.4716796875t0.6123046875,1.24609375t0.9130859375,0.4833984375q1.138671875-0.12890625,1.8798828125-0.7412109375t1.203125-1.4931640625t0.64453125-1.912109375t0.1826171875-1.955078125q0-1.181640625-0.4619140625-1.9765625t-1.5146484375-1.2890625q0,0.04296875,0.04296875,0.04296875t0.04296875-0.04296875l-0.537109375-0.12890625q-0.21484375-0.0859375-0.5263671875-0.193359375t-0.6123046875-0.47265625q-0.837890625,0.30078125-1.2998046875,0.7734375t-0.6982421875,1.1494140625t-0.2900390625,1.6220703125t-0.0537109375,2.27734375z M102.82125,32.970703125q0-0.880859375,0.3115234375-1.482421875t1.3212890625-0.6015625q0.38671875,0,0.966796875,0.1181640625t0.666015625,0.5908203125q0.21484375,1.267578125,0.236328125,2.75t0.150390625,2.79296875q0.494140625-0.966796875,1.267578125-2.083984375t1.76171875-2.0625t2.1484375-1.568359375t2.36328125-0.623046875q0.0859375,0,0.322265625,0.064453125t0.4404296875,0.1826171875t0.2470703125,0.2685546875t-0.236328125,0.279296875q-0.0859375,0.2578125-0.365234375,0.3115234375t-0.494140625,0.0537109375q-0.12890625,0-0.408203125-0.107421875q-1.58984375,0.837890625-2.70703125,2.27734375t-1.826171875,3.1904296875t-1.03125,3.6953125t-0.322265625,3.7919921875q0,0.923828125-0.4189453125,1.1171875t-1.3427734375,0.193359375q-0.494140625,0-1.0419921875-0.107421875t-0.7626953125-0.6875q-0.38671875-1.224609375-0.6337890625-2.814453125t-0.3759765625-3.2763671875t-0.1826171875-3.3193359375t-0.0537109375-2.943359375z M118.08955078125,38.986328125q0-1.4609375,0.3974609375-2.814453125t1.1923828125-2.4169921875t1.9873046875-1.697265625t2.7607421875-0.6337890625q0.966796875,0,2.1376953125,0.2900390625t2.2021484375,0.859375t1.71875,1.4501953125t0.6875,2.01953125q0,0.537109375-0.1826171875,0.81640625t-0.7412109375,0.279296875l-0.236328125-0.04296875q0.623046875,1.67578125,1.07421875,3.4375t0.880859375,3.5234375q0.171875,0.34375,0.2578125,0.6123046875t0.0859375,0.5263671875q0,0.34375-0.193359375,0.5693359375t-0.5048828125,0.3330078125t-0.64453125,0.150390625t-0.5908203125,0.04296875q-0.923828125,0-1.3857421875-0.322265625t-0.666015625-0.880859375t-0.2470703125-1.2568359375t-0.171875-1.4072265625q-0.2578125,0.837890625-0.6767578125,1.6328125t-0.98828125,1.4287109375t-1.3427734375,1.009765625t-1.740234375,0.3759765625q-1.41796875,0-2.384765625-0.81640625t-1.5576171875-2.0087890625t-0.859375-2.5458984375t-0.2685546875-2.513671875z M121.14033203125,38.685546875q0,0.794921875,0.107421875,1.67578125t0.3544921875,1.740234375t0.6337890625,1.6220703125t0.966796875,1.3427734375q1.052734375-1.138671875,1.5576171875-2.771484375t0.90234375-3.1474609375t0.90234375-2.599609375t1.5576171875-1.0849609375q0.666015625,0,1.1171875,0.236328125q-0.21484375-0.537109375-0.708984375-1.0419921875t-1.1064453125-0.923828125t-1.267578125-0.6875t-1.2353515625-0.2685546875q-0.171875,0-0.3974609375,0.0537109375t-0.3544921875,0.0107421875q-0.880859375,0.2578125-1.4501953125,0.8916015625t-0.923828125,1.4931640625t-0.5048828125,1.76171875t-0.150390625,1.697265625z M136.7308984375,39.09375l0-0.623046875q0-0.7734375,0.04296875-1.4609375q0.04296875-0.966796875,0.04296875-1.58984375q0-0.34375,0.04296875-0.7841796875t0.21484375-0.6982421875q0.21484375-0.21484375,0.5048828125-0.4404296875t0.6337890625-0.2255859375q1.095703125,0,1.71875,0.2470703125t0.666015625,1.0205078125l0.0859375,0.666015625q0.38671875-0.923828125,1.03125-2.2880859375t1.4931640625-2.599609375t1.912109375-2.10546875t2.2451171875-0.8701171875q1.095703125,0,1.8046875,1.03125t1.1279296875,2.6318359375t0.5908203125,3.56640625t0.236328125,3.8564453125t0.0859375,3.4482421875t0.150390625,2.3525390625q0.0859375,0.666015625,0.2900390625,1.4072265625t0.2041015625,1.3642578125q0,0.171875-0.2470703125,0.3330078125t-0.5263671875,0.2685546875t-0.5693359375,0.171875t-0.4189453125,0.064453125q-0.837890625,0-1.1923828125-1.2568359375t-0.4404296875-3.1474609375t-0.0859375-4.0927734375t-0.150390625-4.0927734375t-0.6123046875-3.1474609375t-1.4716796875-1.2998046875q-0.923828125,0-1.912109375,1.1923828125t-1.697265625,3.1689453125q-0.6875,1.9765625-0.9453125,4.490234375q-0.0859375,0.794921875-0.0859375,1.58984375q0,1.740234375,0.365234375,3.48046875q0.04296875,0.30078125-0.2470703125,0.451171875t-0.7197265625,0.236328125t-0.8701171875,0.107421875t-0.6767578125,0.021484375q-0.837890625,0-1.3427734375-0.5908203125t-0.7841796875-1.5146484375t-0.3759765625-2.0732421875t-0.1181640625-2.2666015625z M156.25310546875,38.728515625q0-1.67578125,0.3544921875-3.0400390625t1.1279296875-2.3095703125t2.0302734375-1.4716796875t3.0615234375-0.5263671875q1.009765625,0,2.0625,0.2685546875t1.8046875,0.9990234375q0-0.4296875,0.0859375-1.7724609375t0.21484375-3.1259765625t0.2685546875-3.73828125t0.2470703125-3.630859375t0.193359375-2.814453125t0.12890625-1.2890625q0.21484375-0.623046875,0.794921875-0.7412109375t1.095703125-0.1181640625q1.353515625,0,1.6650390625,0.4296875t0.3115234375,1.71875q0,4.705078125-0.4189453125,9.3671875t-0.4189453125,9.3671875q0,3.029296875,0.1181640625,6.0908203125t0.8486328125,6.0263671875l0.236328125,0.21484375l0.12890625,0.38671875l-0.322265625,0.494140625q-0.81640625,0.515625-1.890625,0.515625l-0.0859375,0q-1.095703125,0-2.01953125-0.515625q-0.34375-0.21484375-0.5693359375-1.2783203125t-0.3544921875-2.341796875t-0.193359375-2.4599609375t-0.107421875-1.67578125q-0.751953125,1.71875-2.0517578125,2.9541015625t-3.2763671875,1.2353515625q-1.546875,0-2.53515625-0.666015625t-1.5361328125-1.697265625t-0.7734375-2.3095703125t-0.2255859375-2.5458984375z M158.85271484375,38.857421875q0,0.494140625,0.1181640625,1.4609375t0.3759765625,1.93359375t0.7197265625,1.71875t1.2138671875,0.751953125q1.009765625-0.494140625,1.826171875-1.6435546875t1.4072265625-2.53515625t0.923828125-2.771484375t0.3330078125-2.3955078125q0-1.267578125-0.923828125-2.10546875t-2.212890625-0.837890625q-0.38671875,0-0.7841796875,0.150390625t-0.7412109375,0.34375q-0.794921875,0.751953125-1.2353515625,1.3642578125t-0.666015625,1.267578125t-0.2900390625,1.4501953125t-0.064453125,1.84765625z M175.710859375,37.095703125q0-0.4296875,0.0966796875-1.138671875t0.2255859375-1.4072265625t0.30078125-1.2998046875t0.408203125-0.7734375q0.171875-0.171875,0.5908203125-0.34375t0.880859375-0.2470703125t0.859375,0.064453125t0.4833984375,0.5693359375q-0.30078125,0.38671875-0.5478515625,1.3212890625t-0.3759765625,2.0732421875q-0.107421875,0.966796875-0.107421875,1.998046875l0,0.365234375q0.021484375,1.203125,0.21484375,2.212890625t0.5908203125,1.6650390625t1.1064453125,0.6552734375q1.50390625,0,2.75-1.3857421875t2.212890625-3.3837890625t1.697265625-4.2431640625t1.24609375-3.9208984375q0.12890625-0.494140625,0.6123046875-0.666015625t1.0419921875-0.1181640625t0.9990234375,0.2685546875t0.5263671875,0.515625q-0.4296875,3.609375-0.6767578125,7.21875t-0.2470703125,7.26171875q0,0.708984375,0.064453125,1.2998046875t-0.064453125,1.009765625t-0.5693359375,0.666015625t-1.4072265625,0.2470703125q-0.21484375,0-0.5478515625-0.04296875t-0.6875-0.1396484375t-0.6015625-0.2900390625t-0.2470703125-0.451171875q0-1.58984375,0.1181640625-3.265625t0.3330078125-3.244140625q-0.580078125,0.837890625-1.2783203125,1.6650390625t-1.5361328125,1.4931640625t-1.8046875,1.0634765625t-2.083984375,0.3974609375q-1.58984375,0-2.5029296875-0.751953125t-1.375-1.8798828125t-0.580078125-2.4599609375t-0.1181640625-2.578125z M195.97427734375,33.6044921875q-0.0537109375-0.7197265625,0.0859375-1.3212890625t0.55859375-0.9775390625t1.3427734375-0.3759765625q0.21484375,0,0.5263671875,0.0537109375t0.6123046875,0.1396484375t0.5048828125,0.2578125t0.2041015625,0.47265625l0,2.427734375q0.837890625-0.966796875,1.826171875-1.3857421875t2.255859375-0.4189453125q0.966796875,0,1.912109375,0.4404296875t1.783203125,1.1708984375t1.4501953125,1.611328125t0.8916015625,1.76171875q0.171875-0.794921875,0.38671875-1.9443359375t0.6337890625-2.2021484375t1.1064453125-1.8046875t1.826171875-0.751953125q1.224609375,0,2.0625,0.880859375t1.3642578125,2.2880859375t0.794921875,3.1474609375t0.3974609375,3.4375t0.12890625,3.1689453125l0,2.3095703125q0,0.2578125-0.193359375,0.4189453125t-0.4833984375,0.2470703125t-0.6015625,0.107421875t-0.4833984375,0.021484375q-0.666015625,0-1.2138671875-0.2041015625t-0.5478515625-1.0419921875l0-1.93359375t-0.04296875-2.5029296875t-0.150390625-2.685546875t-0.279296875-2.4384765625t-0.4404296875-1.76171875t-0.6552734375-0.6875q-0.537109375,0-0.7734375,0.6015625t-0.3974609375,1.525390625t-0.2470703125,1.955078125t-0.236328125,1.955078125t-0.4833984375,1.5146484375t-0.9130859375,0.5908203125q-0.623046875,0-1.095703125-0.5908203125t-0.9345703125-1.4716796875t-0.923828125-1.890625t-1.0205078125-1.890625q-0.55859375-0.90234375-1.203125-1.4609375q-0.580078125-0.537109375-1.310546875-0.515625l-0.107421875,0q-0.966796875,0.04296875-1.5146484375,0.6982421875t-0.837890625,1.6005859375t-0.3544921875,2.0302734375t-0.064453125,1.9013671875q0,0.7734375,0.12890625,1.8046875q0.0859375,0.6875,0.0859375,1.310546875q0,0.322265625-0.021484375,0.623046875q-0.064453125,0.90234375-0.4833984375,1.5146484375t-1.5576171875,0.6123046875q-0.4296875,0-1.07421875-0.0859375t-0.859375-0.580078125q-0.494140625-0.880859375-0.751953125-2.2236328125t-0.38671875-2.771484375t-0.150390625-2.8359375t-0.021484375-2.4169921875q0-0.708984375-0.0537109375-1.4287109375z"/><path fill="#" d=""/></svg>
